<svg height="1000" viewBox="0 0 264.58333 264.58333" width="1000" xmlns="http://www.w3.org/2000/svg"><g fill="none" stroke="#42bcf0"><path d="m145.52083 132.29166c119.06249-79.374996 66.14583-132.29166 66.14583-132.29166-52.91667 0-105.83333 0-158.749996 0 0 0-52.916664 52.916664 66.145826 132.29166" stroke-width="21.166667"/><path d="m145.52083 132.29166c119.06249 79.375 66.14583 132.29166 66.14583 132.29166-52.91667 0-105.83333 0-158.75 0 0 0-52.916664-52.91666 66.14583-132.29166" stroke-linecap="round" stroke-width="21.166667"/><g stroke-width="10.583333"><path d="m66.14583 39.687498h105.83333" stroke-linejoin="round"/><path d="m79.374996 66.14583h52.916664"/><path d="m105.83333 92.604162 52.91666-.000002"/><path d="m92.604162 185.20833h79.374998"/><path d="m66.14583 211.66666h132.29166"/><path d="m66.14583 238.12499h132.29166"/></g></g></svg>